<?xml version="1.0" encoding="iso-8859-1"?>
<!-- Generator: Adobe Illustrator 21.0.0, SVG Export Plug-In . SVG Version: 6.00 Build 0)  -->
<svg xmlns="http://www.w3.org/2000/svg" xmlns:xlink="http://www.w3.org/1999/xlink" version="1.1" id="Capa_1" x="0px" y="0px" viewBox="0 0 512 512" style="enable-background:new 0 0 512 512;" xml:space="preserve" width="512" height="512">
<g>
	<path style="fill:#87553C;" d="M352.057,341.894c-2.052-0.672-3.43-2.638-3.43-4.896c0-51.632-41.552-93.638-92.627-93.638   s-92.627,42.006-92.627,93.642c0,2.219-1.41,4.231-3.429,4.892c-35.093,11.495-58.672,44.29-58.672,81.606   c0,47.296,38.07,85.774,84.865,85.774c19.242,0,38.088-6.686,53.066-18.826c2.101-1.705,6.643-8.698,16.797-8.698   c10.037,0,14.657,6.936,16.664,8.57c15.011,12.223,33.904,18.954,53.199,18.954c46.795,0,84.865-38.478,84.865-85.774   C410.728,386.183,387.149,353.388,352.057,341.894z"/>
	<path style="fill:#87553C;" d="M141.141,242.672c-12.294-43.947-52.98-70.82-91.164-59.859   c-37.875,10.874-58.719,55.356-46.465,99.158c0,0,0,0,0,0c12.344,44.123,53.133,70.776,91.164,59.858   C132.551,330.956,153.395,286.474,141.141,242.672z"/>
	<path style="fill:#87553C;" d="M171.237,194.055c48.591,0,69.534-45.902,69.534-95.665c0-49.826-21.035-95.665-69.534-95.665   c-45.424,0-82.378,42.915-82.378,95.665S125.814,194.055,171.237,194.055z"/>
	<path style="fill:#72462E;" d="M352.057,341.894c-2.052-0.672-3.43-2.638-3.43-4.896c0-51.632-41.552-93.638-92.627-93.638V481.75   c10.037,0,14.657,6.936,16.664,8.57c15.011,12.223,33.904,18.954,53.199,18.954c46.795,0,84.865-38.478,84.865-85.774   C410.728,386.183,387.149,353.388,352.057,341.894z"/>
	<path style="fill:#72462E;" d="M462.023,182.813c-38.323-11.004-78.915,16.077-91.164,59.859   c-12.254,43.802,8.59,88.283,46.465,99.157c38.327,11.005,78.916-16.081,91.164-59.858c0,0,0,0,0,0   C520.742,238.169,499.898,193.688,462.023,182.813z"/>
	<path style="fill:#72462E;" d="M340.763,194.055c45.424,0,82.378-42.915,82.378-95.665S386.186,2.726,340.763,2.726   c-48.591,0-69.534,45.902-69.534,95.665C271.228,148.217,292.263,194.055,340.763,194.055z"/>
</g>















</svg>
